<svg width="16" height="17" viewBox="0 0 16 17" fill="none" xmlns="http://www.w3.org/2000/svg"><g clip-path="url(#a)"><path d="M8 16.112a8 8 0 1 0 0-16 8 8 0 0 0 0 16Z" fill="#627EEA"/><path d="M8.249 2.112v4.435l3.748 1.675-3.748-6.11Z" fill="#fff" fill-opacity=".602"/><path d="M8.249 2.112 4.5 8.222l3.749-1.675V2.112Z" fill="#fff"/><path d="M8.249 11.096v3.014L12 8.92l-3.751 2.176Z" fill="#fff" fill-opacity=".602"/><path d="M8.249 14.11v-3.014L4.5 8.92l3.749 5.19Z" fill="#fff"/><path d="m8.249 10.399 3.748-2.177L8.25 6.548v3.85Z" fill="#fff" fill-opacity=".2"/><path d="M4.5 8.222 8.249 10.4V6.55L4.5 8.221Z" fill="#fff" fill-opacity=".602"/></g><defs><clipPath id="a"><path fill="#fff" transform="translate(0 .112)" d="M0 0h16v16H0z"/></clipPath></defs></svg>