<svg width="201" height="140" viewBox="0 0 201 140" fill="none" xmlns="http://www.w3.org/2000/svg"><path d="M100.5 139.846c55.228 0 100-18.997 100-42.431 0-23.434-44.772-42.431-100-42.431S.5 73.98.5 97.414c0 23.435 44.772 42.432 100 42.432Z" fill="url(#a)"/><path fill-rule="evenodd" clip-rule="evenodd" d="M45.257 1.007c-7.535 2.646-9.864 11.035-6.986 25.167 4.882-.285 20.867-.285 47.957 0L45.258 1.007Z" fill="#D8DADD"/><path fill-rule="evenodd" clip-rule="evenodd" d="M53.945 25.731c-1.65 18.666-4.014 65.295 12.595 61.475 11.073-2.547 29.798-3.822 56.176-3.826V18.178c-2.099-10.311-5.125-16.035-9.077-17.171-3.952-1.136-26.746-1.136-68.382 0 6.892 4.039 9.788 12.28 8.688 24.724Z" fill="url(#b)"/><path fill-rule="evenodd" clip-rule="evenodd" d="M88.6 84.473c-17.642 2.57-25.305 3.43-22.989 2.583 3.475-1.27 3.814-4.36 8.79-10.668 4.976-6.308 9.925-5.481 13.262 2.76.403.993.715 2.768.937 5.325Z" fill="#D8DADD"/><path fill-rule="evenodd" clip-rule="evenodd" d="M80.016 72.283c5.733 2.091 8.6 7.245 8.6 15.46v21.791h67c1.85-18.915-.344-31.332-6.582-37.25" fill="url(#c)"/><path d="M143.222 62.586c6.202-6.215 6.177-16.315-.055-22.56-6.232-6.245-16.311-6.27-22.513-.055-6.202 6.215-6.178 16.316.054 22.56 6.232 6.246 16.312 6.27 22.514.055Z" stroke="url(#d)" stroke-width="2.055"/><path d="M147.993 64.768a1.831 1.831 0 0 0-2.594 0 1.842 1.842 0 0 0 0 2.6l4.354 4.362a1.831 1.831 0 0 0 2.594 0 1.842 1.842 0 0 0 0-2.6l-4.354-4.362Z" fill="#BBBDC0"/><path d="M104.104 13.456h-39.64a2.706 2.706 0 0 0-2.703 2.708 2.706 2.706 0 0 0 2.703 2.708h39.64a2.705 2.705 0 0 0 2.702-2.708 2.705 2.705 0 0 0-2.702-2.708Z" fill="#D8D8D8"/><path d="M104.104 13.456h-39.64a2.706 2.706 0 0 0-2.703 2.708 2.706 2.706 0 0 0 2.703 2.708h39.64a2.705 2.705 0 0 0 2.702-2.708 2.705 2.705 0 0 0-2.702-2.708Zm0 14.444h-39.64a2.706 2.706 0 0 0-2.703 2.708 2.706 2.706 0 0 0 2.703 2.709h39.64a2.705 2.705 0 0 0 2.702-2.709 2.705 2.705 0 0 0-2.702-2.708Zm-9.009 14.445H64.464a2.706 2.706 0 0 0-2.703 2.708 2.706 2.706 0 0 0 2.703 2.708h30.63a2.706 2.706 0 0 0 2.703-2.708 2.706 2.706 0 0 0-2.702-2.708Z" fill="#FDFDFD"/><defs><linearGradient id="a" x1="104.589" y1="139.846" x2="104.589" y2="48.309" gradientUnits="userSpaceOnUse"><stop stop-color="#F3F4F6" stop-opacity="0"/><stop offset="1" stop-color="#E4E6E9"/></linearGradient><linearGradient id="b" x1="83.987" y1=".155" x2="83.987" y2="87.427" gradientUnits="userSpaceOnUse"><stop stop-color="#F3F4F6"/><stop offset="1" stop-color="#E4E6E9"/></linearGradient><linearGradient id="c" x1="120.698" y1="86.48" x2="121.593" y2="95.606" gradientUnits="userSpaceOnUse"><stop stop-color="#F3F4F6"/><stop offset="1" stop-color="#E4E6E9"/></linearGradient><linearGradient id="d" x1="118.101" y1="45.696" x2="143.285" y2="62.491" gradientUnits="userSpaceOnUse"><stop stop-color="#DFE0E1"/><stop offset="1" stop-color="#D8D9DB"/></linearGradient></defs></svg>